<?xml version="1.0" encoding="utf-8"?>
<!-- Generator: Adobe Illustrator 19.1.0, SVG Export Plug-In . SVG Version: 6.00 Build 0)  -->
<svg version="1.1" id="Layer_1" xmlns="http://www.w3.org/2000/svg" xmlns:xlink="http://www.w3.org/1999/xlink" x="0px" y="0px"
	 viewBox="0 0 112 60" width="112px" height="60px" enable-background="new 0 0 112 60" xml:space="preserve">
<g>
	<g>
		<g>
			<path fill="#FFFFFF" d="M30.146,0c-16.569,0-30,13.431-30,30c0,16.569,13.431,30,30,30s30-13.431,30-30
				C60.146,13.431,46.715,0,30.146,0z M30.146,55.592C16.012,55.592,4.554,44.134,4.554,30c0-14.134,11.458-25.592,25.592-25.592
				C44.28,4.408,55.738,15.866,55.738,30C55.738,44.134,44.28,55.592,30.146,55.592z"/>
			<path fill="#FFFFFF" d="M21.581,13.092V9.111H19.09v4.607c-1.689,0.512-2.667,1.046-2.508,1.393
				c0.557-0.165,1.445-0.233,2.508-0.165v23.926c-2.588,4.988,1.115,12.631,1.115,12.631s-2.747-8.161,3.372-12.017
				c5.625-3.555,25.029-1.882,24.967-12.836C48.447,11.136,30.555,11.232,21.581,13.092z M29.589,28.14
				c-0.87,4.123-5.38,6.279-8.008,8.064V15.327C26.068,16.408,31.34,19.848,29.589,28.14z M41.492,21.717
				c0,0-0.152,1.415-0.923,2.678c0,0-0.018,1.048,0.036,1.209c0.054,0.161,0.206,0.528-0.143,0.654
				c-0.349,0.125-0.708,0.063-0.905,0l-0.161,0.385c0,0-0.027,0.887,0.036,1.093c0.063,0.206,0.143,0.385,0,0.511
				c-0.143,0.125-0.502,0.152-0.77,0.143c0,0-0.09,0.26-0.09,0.573c0,0.313,0.152,1.102,0.475,1.764
				c0.322,0.663,0.582,1.29,0.466,1.433c0,0-1.093-0.099-1.648-0.099s-1.648,0.099-1.648,0.099c-0.116-0.143,0.143-0.77,0.466-1.433
				s0.475-1.451,0.475-1.764c0-0.314-0.09-0.573-0.09-0.573c-0.269,0.009-0.627-0.018-0.77-0.143c-0.143-0.125-0.063-0.305,0-0.511
				c0.063-0.206,0.036-1.093,0.036-1.093l-0.161-0.385c-0.197,0.063-0.555,0.125-0.905,0c-0.349-0.125-0.197-0.493-0.143-0.654
				c0.054-0.161,0.036-1.209,0.036-1.209c-0.77-1.263-0.923-2.678-0.923-2.678c-0.932,0.188-1.299-0.17-1.299-0.34
				s0.245-0.477,0.364-1.128c0.119-0.648,0.335-2.088,0.335-2.088s0.358,0.878,1.63,0.878c1.263,0,2.033-1.541,2.597-1.541
				c0.564,0,1.335,1.541,2.597,1.541c1.272,0,1.63-0.878,1.63-0.878s0.216,1.44,0.335,2.088c0.119,0.651,0.364,0.957,0.364,1.128
				S42.424,21.905,41.492,21.717z"/>
		</g>
	</g>
	<g>
		<path fill="#FFFFFF" d="M92.344,21.247h-4.823v9.114h4.823c3.188,0,5.027-1.594,5.027-4.618
			C97.371,22.759,95.532,21.247,92.344,21.247z"/>
		<path fill="#FFFFFF" d="M81.854,0c-16.569,0-30,13.431-30,30c0,16.569,13.431,30,30,30s30-13.431,30-30
			C111.854,13.431,98.423,0,81.854,0z M74.42,44.236l-4.05-5.981l-4.05,5.981h-5.552l6.706-9.603l-6.277-9.173h5.552l3.621,5.472
			l3.621-5.472h5.606l-6.196,8.959l6.733,9.817H74.42z M92.712,36.083h-5.19v8.051h-7.275V15.526h12.465
			c7.316,0,11.525,3.596,11.525,9.972C104.237,32.2,100.028,36.083,92.712,36.083z"/>
	</g>
</g>
</svg>
