<?xml version="1.0" encoding="UTF-8" standalone="no"?>
<svg width="187px" height="60px" viewBox="0 0 187 60" version="1.1" xmlns="http://www.w3.org/2000/svg" xmlns:xlink="http://www.w3.org/1999/xlink">
    <!-- Generator: Sketch 40 (33762) - http://www.bohemiancoding.com/sketch -->
    <title>Artboard</title>
    <desc>Created with Sketch.</desc>
    <defs></defs>
    <g id="Page-1" stroke="none" stroke-width="1" fill="none" fill-rule="evenodd">
        <g id="Artboard" fill="#000000">
            <g id="Logo">
                <path d="M59.467972,29.733986 C59.467972,46.1555245 46.1555245,59.467972 29.733986,59.467972 C13.3124476,59.467972 0,46.1555245 0,29.733986 C0,13.312028 13.3124476,0 29.733986,0 C46.1555245,0 59.467972,13.312028 59.467972,29.733986 Z M55.0997203,29.733986 C55.0997203,43.7429371 43.7429371,55.0993007 29.733986,55.0993007 C15.725035,55.0993007 4.36867133,43.7429371 4.36867133,29.733986 C4.36867133,15.725035 15.725035,4.36825175 29.733986,4.36825175 C43.7429371,4.36825175 55.0997203,15.725035 55.0997203,29.733986 Z" id="Combined-Shape"></path>
                <path d="M21.5697902,13.1941259 L21.5697902,9.24797203 L19.100979,9.24797203 L19.100979,13.8138462 C17.4268531,14.3211189 16.4572028,14.851049 16.614965,15.1951049 C17.1675524,15.0314685 18.0465734,14.9639161 19.100979,15.0314685 L19.100979,38.7453147 C16.5360839,43.6888112 20.2057343,51.2647552 20.2057343,51.2647552 C20.2057343,51.2647552 17.4830769,43.1760839 23.5481119,39.3541259 C29.1230769,35.8313287 48.3558042,37.4886713 48.2937063,26.632028 C48.198042,11.2548252 30.4644755,11.3504895 21.5697902,13.1941259 L21.5697902,13.1941259 Z M29.5061538,28.108951 C28.6439161,32.1956643 24.1737063,34.3317483 21.5697902,36.101958 L21.5697902,15.4090909 C26.0173427,16.4802797 31.2423776,19.8906294 29.5061538,28.108951 L29.5061538,28.108951 Z M41.3043357,21.7422378 C41.3043357,21.7422378 41.1532867,23.1448951 40.3900699,24.3969231 C40.3900699,24.3969231 40.372028,25.4353846 40.4253147,25.5952448 C40.4786014,25.7551049 40.6296503,26.1188811 40.2834965,26.2430769 C39.9373427,26.3676923 39.581958,26.3055944 39.3868531,26.2430769 L39.226993,26.6248951 C39.226993,26.6248951 39.2001399,27.5039161 39.2626573,27.7078322 C39.3247552,27.9121678 39.4044755,28.0896503 39.2626573,28.2138462 C39.1204196,28.3384615 38.7654545,28.3648951 38.499021,28.3560839 C38.499021,28.3560839 38.4100699,28.6137063 38.4100699,28.9241958 C38.4100699,29.2346853 38.5611189,30.0159441 38.8808392,30.673007 C39.2001399,31.3300699 39.4577622,31.9514685 39.3423776,32.0932867 C39.3423776,32.0932867 38.2594406,31.9959441 37.708951,31.9959441 C37.1584615,31.9959441 36.0755245,32.0932867 36.0755245,32.0932867 C35.9601399,31.9514685 36.2173427,31.3300699 36.5370629,30.673007 C36.8567832,30.0159441 37.0078322,29.2346853 37.0078322,28.9241958 C37.0078322,28.6137063 36.9188811,28.3560839 36.9188811,28.3560839 C36.6524476,28.3648951 36.2974825,28.3384615 36.1552448,28.2138462 C36.0134266,28.0896503 36.0931469,27.9121678 36.1552448,27.7078322 C36.2173427,27.5039161 36.1909091,26.6248951 36.1909091,26.6248951 L36.031049,26.2430769 C35.8359441,26.3055944 35.4805594,26.3676923 35.1344056,26.2430769 C34.7882517,26.1188811 34.9393007,25.7551049 34.9925874,25.5952448 C35.0458741,25.4353846 35.0278322,24.3969231 35.0278322,24.3969231 C34.2646154,23.1448951 34.1135664,21.7422378 34.1135664,21.7422378 C33.1904895,21.928951 32.8262937,21.5735664 32.8262937,21.4048951 C32.8262937,21.2362238 33.0688112,20.9328671 33.1871329,20.2875524 C33.305035,19.6455944 33.5186014,18.2181818 33.5186014,18.2181818 C33.5186014,18.2181818 33.873986,19.087972 35.1344056,19.087972 C36.386014,19.087972 37.1496503,17.5611189 37.708951,17.5611189 C38.2682517,17.5611189 39.0314685,19.087972 40.2834965,19.087972 C41.5439161,19.087972 41.8988811,18.2181818 41.8988811,18.2181818 C41.8988811,18.2181818 42.1128671,19.6455944 42.2307692,20.2875524 C42.3490909,20.9328671 42.5916084,21.2362238 42.5916084,21.4048951 C42.5916084,21.5735664 42.2274126,21.928951 41.3043357,21.7422378 L41.3043357,21.7422378 Z" id="Fill-3"></path>
            </g>
            <path d="M71,15.448 L71,40.648 L77.408,40.648 L77.408,33.556 L81.98,33.556 C88.424,33.556 92.132,30.136 92.132,24.232 C92.132,18.616 88.424,15.448 81.98,15.448 L71,15.448 Z M77.408,20.488 L81.656,20.488 C84.464,20.488 86.084,21.82 86.084,24.448 C86.084,27.112 84.464,28.516 81.656,28.516 L77.408,28.516 L77.408,20.488 Z M103.876,14.98 L98.26,13 L94.444,19.048 L99.196,19.048 L103.876,14.98 Z M100.636,40.648 L100.636,21.244 L94.444,21.244 L94.444,40.648 L100.636,40.648 Z M110.868,21.244 L104.64,21.244 L104.64,40.648 L110.868,40.648 L110.868,30.676 C111.192,27.94 113.568,26.248 117.168,26.572 L117.168,20.956 C114.396,20.992 112.2,22.252 110.868,24.52 L110.868,21.244 Z M127.184,20.956 C123.944,20.956 121.208,21.748 118.184,23.152 L119.948,27.256 C122,26.212 124.124,25.636 125.744,25.636 C128.264,25.636 129.524,26.788 129.524,28.696 L129.524,28.984 L124.412,28.984 C119.588,29.02 116.96,31.18 116.96,34.852 C116.96,38.416 119.48,40.936 123.62,40.936 C126.248,40.936 128.3,40.072 129.56,38.416 L129.56,40.648 L135.644,40.648 L135.644,27.976 C135.608,23.584 132.512,20.956 127.184,20.956 L127.184,20.956 Z M125.528,36.724 C123.8,36.724 122.792,35.824 122.792,34.42 C122.792,32.98 123.728,32.332 125.6,32.332 L129.524,32.332 L129.524,34.06 C129.128,35.644 127.472,36.724 125.528,36.724 L125.528,36.724 Z M150.376,35.284 C149.44,35.68 148.612,35.932 147.964,35.932 C146.812,35.968 146.164,35.32 146.164,33.808 L146.164,26.212 L151.24,26.212 L151.24,22.108 L146.164,22.108 L146.164,16.744 L139.972,16.744 L139.972,22.144 L137.272,22.144 L137.272,26.212 L139.972,26.212 L139.972,34.78 C139.972,38.812 142.672,40.936 146.416,40.936 C148.288,40.936 150.196,40.432 151.6,39.604 L150.376,35.284 Z M162.444,20.956 C159.204,20.956 156.468,21.748 153.444,23.152 L155.208,27.256 C157.26,26.212 159.384,25.636 161.004,25.636 C163.524,25.636 164.784,26.788 164.784,28.696 L164.784,28.984 L159.672,28.984 C154.848,29.02 152.22,31.18 152.22,34.852 C152.22,38.416 154.74,40.936 158.88,40.936 C161.508,40.936 163.56,40.072 164.82,38.416 L164.82,40.648 L170.904,40.648 L170.904,27.976 C170.868,23.584 167.772,20.956 162.444,20.956 L162.444,20.956 Z M160.788,36.724 C159.06,36.724 158.052,35.824 158.052,34.42 C158.052,32.98 158.988,32.332 160.86,32.332 L164.784,32.332 L164.784,34.06 C164.388,35.644 162.732,36.724 160.788,36.724 L160.788,36.724 Z M180.56,21.244 L174.332,21.244 L174.332,40.648 L180.56,40.648 L180.56,30.676 C180.884,27.94 183.26,26.248 186.86,26.572 L186.86,20.956 C184.088,20.992 181.892,22.252 180.56,24.52 L180.56,21.244 Z" id="Píratar"></path>
        </g>
    </g>
</svg>